<svg xmlns="http://www.w3.org/2000/svg" xmlns:xlink="http://www.w3.org/1999/xlink" width="500" zoomAndPan="magnify" viewBox="0 0 375 374.999991" height="500" preserveAspectRatio="xMidYMid meet" version="1.0"><defs><g/><clipPath id="ec27ad7955"><path d="M 120.261719 171 L 181 171 L 181 213.222656 L 120.261719 213.222656 Z M 120.261719 171 " clip-rule="nonzero"/></clipPath><clipPath id="449ba22297"><path d="M 136 171 L 187 171 L 187 213.222656 L 136 213.222656 Z M 136 171 " clip-rule="nonzero"/></clipPath><clipPath id="46f1cc6fbb"><path d="M 193 171 L 254.511719 171 L 254.511719 213.222656 L 193 213.222656 Z M 193 171 " clip-rule="nonzero"/></clipPath><clipPath id="236822aa16"><path d="M 133 120.222656 L 242 120.222656 L 242 198 L 133 198 Z M 133 120.222656 " clip-rule="nonzero"/></clipPath><clipPath id="81ca8cb7d4"><path d="M 187 171 L 239 171 L 239 213.222656 L 187 213.222656 Z M 187 171 " clip-rule="nonzero"/></clipPath></defs><g clip-path="url(#ec27ad7955)"><path fill="#3a3a3c" d="M 180.949219 171.449219 L 129.964844 213.222656 L 120.34375 213.222656 L 179.859375 171.449219 Z M 180.949219 171.449219 " fill-opacity="1" fill-rule="nonzero"/></g><g clip-path="url(#449ba22297)"><path fill="#3a3a3c" d="M 179.226562 186.800781 L 175.09375 186.800781 L 179.269531 179.785156 L 181.992188 179.785156 Z M 183.945312 171.949219 L 185.105469 171.949219 L 184.71875 172.929688 L 183.355469 172.929688 Z M 184.171875 174.273438 L 183.355469 176.324219 L 181.3125 176.324219 L 182.539062 174.273438 Z M 181.675781 171.449219 L 136.640625 213.222656 L 159.339844 213.222656 L 162.042969 208.691406 L 170.554688 208.691406 L 168.761719 213.222656 L 182.5625 213.222656 L 186.851562 171.449219 Z M 181.675781 171.449219 " fill-opacity="1" fill-rule="nonzero"/></g><g clip-path="url(#46f1cc6fbb)"><path fill="#3a3a3c" d="M 254.429688 213.222656 L 244.804688 213.222656 L 193.84375 171.449219 L 194.910156 171.449219 Z M 254.429688 213.222656 " fill-opacity="1" fill-rule="nonzero"/></g><path fill="#0e74bc" d="M 187.398438 138.648438 C 167.785156 138.648438 151.828125 154.660156 151.828125 174.339844 C 151.828125 178.488281 152.554688 182.472656 153.847656 186.1875 L 156.277344 184.476562 C 155.414062 181.8125 154.867188 179.011719 154.730469 176.09375 L 166.242188 177.460938 L 178.589844 168.785156 C 180.8125 165.6875 184.535156 163.589844 187.375 163.589844 C 191.003906 163.589844 194.207031 165.414062 196.136719 168.191406 L 196.5 168.191406 L 209.527344 177.324219 L 220.039062 176.074219 C 219.902344 178.738281 219.425781 181.3125 218.699219 183.75 L 221.152344 185.480469 C 222.308594 181.972656 222.945312 178.214844 222.945312 174.320312 C 222.945312 154.660156 207.007812 138.648438 187.398438 138.648438 Z M 172.867188 170.402344 L 154.710938 172.566406 C 155.117188 164.84375 158.203125 157.828125 163.039062 152.40625 L 174.34375 166.800781 C 173.707031 167.941406 173.210938 169.125 172.867188 170.402344 Z M 183.46875 159.765625 C 182.199219 160.105469 180.996094 160.605469 179.882812 161.246094 L 165.535156 149.902344 C 170.917969 145.050781 177.929688 141.953125 185.625 141.542969 Z M 194.886719 161.265625 C 193.773438 160.628906 192.570312 160.128906 191.300781 159.785156 L 189.144531 141.566406 C 196.839844 141.976562 203.832031 145.074219 209.234375 149.925781 Z M 201.902344 170.402344 C 201.5625 169.125 201.0625 167.917969 200.425781 166.800781 L 211.730469 152.40625 C 216.566406 157.804688 219.652344 164.84375 220.0625 172.566406 Z M 201.902344 170.402344 " fill-opacity="1" fill-rule="nonzero"/><g clip-path="url(#236822aa16)"><path fill="#00a4e3" d="M 133.757812 182.519531 L 136.867188 194.136719 L 140.089844 193.976562 L 137.707031 196.164062 L 138.253906 197.117188 L 152.347656 187.234375 C 150.871094 183.203125 150.054688 178.851562 150.054688 174.320312 C 150.054688 153.660156 166.808594 136.851562 187.398438 136.851562 C 207.984375 136.851562 224.738281 153.660156 224.738281 174.320312 C 224.738281 178.601562 224.011719 182.722656 222.695312 186.550781 L 236.902344 196.527344 L 237.109375 196.164062 L 234.726562 193.976562 L 237.949219 194.136719 L 241.058594 182.519531 L 238.152344 181.039062 L 241.308594 180.355469 L 241.308594 168.328125 L 238.152344 167.644531 L 241.035156 166.164062 L 237.925781 154.546875 L 234.703125 154.707031 L 237.085938 152.519531 L 231.09375 142.113281 L 228.007812 143.089844 L 229.753906 140.359375 L 221.285156 131.863281 L 218.5625 133.617188 L 219.539062 130.472656 L 209.164062 124.457031 L 206.984375 126.851562 L 207.144531 123.617188 L 195.570312 120.496094 L 194.09375 123.386719 L 193.410156 120.222656 L 181.402344 120.222656 L 180.722656 123.386719 L 179.246094 120.496094 L 167.671875 123.617188 L 167.828125 126.851562 L 165.652344 124.457031 L 155.230469 130.472656 L 156.207031 133.570312 L 153.484375 131.816406 L 145.015625 140.3125 L 146.765625 143.046875 L 143.675781 142.066406 L 137.683594 152.476562 L 140.066406 154.660156 L 136.84375 154.503906 L 133.734375 166.117188 L 136.617188 167.597656 L 133.460938 168.28125 L 133.460938 180.355469 L 136.617188 181.039062 Z M 133.757812 182.519531 " fill-opacity="1" fill-rule="nonzero"/></g><g clip-path="url(#81ca8cb7d4)"><path fill="#3a3a3c" d="M 189.667969 171.949219 L 190.824219 171.949219 L 191.414062 172.929688 L 190.050781 172.929688 Z M 199.699219 186.800781 L 195.570312 186.800781 L 192.800781 179.785156 L 195.523438 179.785156 Z M 191.414062 176.347656 L 190.597656 174.296875 L 192.230469 174.296875 L 193.457031 176.347656 Z M 193.09375 171.449219 L 187.941406 171.449219 L 192.207031 213.222656 L 206.011719 213.222656 L 204.21875 208.691406 L 212.730469 208.691406 L 215.429688 213.222656 L 238.128906 213.222656 Z M 193.09375 171.449219 " fill-opacity="1" fill-rule="nonzero"/></g><g fill="#3a3a3c" fill-opacity="1"><g transform="translate(116.710372, 222.868879)"><g><path d="M 1.011719 0 L 3.152344 0 C 2.996094 -2.082031 2.996094 -6.28125 3.128906 -8.386719 C 2.453125 -8.273438 1.734375 -8.285156 1.011719 -8.386719 C 1.148438 -6.28125 1.148438 -2.105469 1.011719 0 Z M 1.011719 0 "/></g></g></g><g fill="#3a3a3c" fill-opacity="1"><g transform="translate(120.591787, 222.868879)"><g><path d="M 0.96875 0 C 2.554688 0 4.140625 0.0234375 5.582031 0.0234375 C 9.410156 0.0234375 11.671875 -1.566406 11.671875 -4.242188 C 11.671875 -6.878906 9.5 -8.441406 5.832031 -8.441406 C 4.300781 -8.441406 3.105469 -8.386719 0.96875 -8.386719 C 1.09375 -6.449219 1.09375 -1.9375 0.96875 0 Z M 2.960938 -7.160156 C 3.960938 -7.148438 4.90625 -7.203125 5.652344 -7.203125 C 8.195312 -7.203125 9.714844 -6.113281 9.714844 -4.242188 C 9.714844 -2.339844 8.171875 -1.226562 5.582031 -1.226562 C 4.582031 -1.226562 3.625 -1.292969 2.972656 -1.316406 C 2.9375 -3.296875 2.925781 -5.1875 2.960938 -7.160156 Z M 2.960938 -7.160156 "/></g></g></g><g fill="#3a3a3c" fill-opacity="1"><g transform="translate(132.495306, 222.868879)"><g><path d="M 1.011719 0 L 3.207031 0 C 3.0625 -1.09375 3.027344 -2.238281 3.027344 -3.320312 C 4.988281 -3.367188 7.238281 -3.285156 8.78125 -3.195312 C 8.734375 -3.660156 8.734375 -4.1875 8.78125 -4.617188 C 7.238281 -4.515625 4.996094 -4.425781 3.027344 -4.457031 C 3.015625 -5.347656 3.015625 -6.234375 3.050781 -7.113281 C 5.054688 -7.136719 8.027344 -6.957031 9.601562 -6.664062 C 9.558594 -7.226562 9.558594 -7.800781 9.601562 -8.363281 C 7.542969 -8.195312 2.339844 -8.273438 1.011719 -8.386719 C 1.148438 -6.292969 1.148438 -2.105469 1.011719 0 Z M 1.011719 0 "/></g></g></g><g fill="#3a3a3c" fill-opacity="1"><g transform="translate(142.103583, 222.868879)"><g><path d="M 5.257812 -3.667969 C 3.726562 -3.601562 1.878906 -3.601562 0.359375 -3.667969 C 0.40625 -3.46875 0.40625 -3.003906 0.371094 -2.824219 C 1.878906 -2.882812 3.726562 -2.882812 5.257812 -2.824219 C 5.222656 -3.003906 5.222656 -3.46875 5.257812 -3.667969 Z M 5.257812 -3.667969 "/></g></g></g><g fill="#3a3a3c" fill-opacity="1"><g transform="translate(147.436408, 222.868879)"><g><path d="M 6.316406 0.191406 C 8.5 0.191406 9.949219 -0.292969 11.222656 -1.214844 C 11.144531 -1.664062 11.03125 -2.296875 11.097656 -2.960938 C 9.691406 -1.632812 8.128906 -1.171875 6.527344 -1.171875 C 3.828125 -1.171875 2.476562 -2.410156 2.476562 -4.234375 C 2.476562 -6.167969 4.074219 -7.261719 6.597656 -7.25 C 7.722656 -7.238281 9.285156 -6.96875 11.097656 -5.875 C 11.019531 -6.527344 11.019531 -7.011719 11.097656 -7.664062 C 9.296875 -8.410156 7.800781 -8.601562 6.496094 -8.601562 C 2.835938 -8.601562 0.519531 -7.082031 0.519531 -4.234375 C 0.519531 -1.507812 2.613281 0.191406 6.316406 0.191406 Z M 6.316406 0.191406 "/></g></g></g><g fill="#3a3a3c" fill-opacity="1"><g transform="translate(158.979888, 222.868879)"><g><path d="M 6.179688 0.167969 C 9.738281 0.167969 11.832031 -1.441406 11.832031 -4.210938 C 11.832031 -6.980469 9.738281 -8.601562 6.179688 -8.601562 C 2.621094 -8.601562 0.519531 -6.992188 0.519531 -4.210938 C 0.519531 -1.441406 2.621094 0.167969 6.179688 0.167969 Z M 6.179688 -1.09375 C 3.839844 -1.09375 2.476562 -2.207031 2.476562 -4.164062 C 2.476562 -6.144531 3.839844 -7.328125 6.179688 -7.328125 C 8.5 -7.328125 9.894531 -6.144531 9.894531 -4.164062 C 9.894531 -2.207031 8.5 -1.09375 6.179688 -1.09375 Z M 6.179688 -1.09375 "/></g></g></g><g fill="#3a3a3c" fill-opacity="1"><g transform="translate(171.040926, 222.868879)"><g><path d="M 8.410156 0 L 11.132812 0 C 11.03125 -2.792969 11.019531 -5.59375 11.097656 -8.386719 C 10.46875 -8.273438 9.804688 -8.285156 9.09375 -8.386719 C 9.207031 -6.101562 9.230469 -3.792969 9.195312 -1.496094 C 7.304688 -3.757812 5.492188 -6.054688 3.757812 -8.386719 C 3.015625 -8.273438 1.710938 -8.296875 0.96875 -8.386719 C 1.058594 -5.59375 1.058594 -2.792969 0.96875 0 L 2.996094 0 C 2.894531 -2.261719 2.859375 -4.558594 2.894531 -6.820312 C 4.804688 -4.59375 6.640625 -2.308594 8.410156 0 Z M 8.410156 0 "/></g></g></g><g fill="#3a3a3c" fill-opacity="1"><g transform="translate(182.85444, 222.868879)"><g><path d="M 8.488281 -8.386719 C 7.542969 -6.078125 6.113281 -2.601562 5.390625 -1.203125 C 4.671875 -2.601562 3.242188 -6.078125 2.375 -8.386719 C 1.609375 -8.296875 0.921875 -8.296875 0.15625 -8.386719 C 1.574219 -5.472656 2.722656 -2.925781 3.859375 0 L 6.855469 0 C 8.070312 -2.925781 9.152344 -5.472656 10.582031 -8.386719 C 9.851562 -8.296875 9.21875 -8.296875 8.488281 -8.386719 Z M 8.488281 -8.386719 "/></g></g></g><g fill="#3a3a3c" fill-opacity="1"><g transform="translate(193.306555, 222.868879)"><g><path d="M 0.96875 0 L 9.996094 0 C 9.949219 -0.5625 9.949219 -1.160156 9.996094 -1.722656 C 8.429688 -1.429688 5.167969 -1.25 3.027344 -1.273438 C 2.984375 -2.046875 2.984375 -2.835938 2.984375 -3.589844 C 5.078125 -3.636719 7.664062 -3.558594 9.195312 -3.46875 C 9.152344 -3.917969 9.152344 -4.425781 9.195312 -4.886719 C 7.675781 -4.785156 5.078125 -4.695312 2.984375 -4.726562 C 2.972656 -5.527344 2.984375 -6.328125 3.003906 -7.125 C 5.132812 -7.148438 8.421875 -6.96875 9.996094 -6.664062 C 9.949219 -7.226562 9.949219 -7.800781 9.996094 -8.351562 C 7.9375 -8.195312 2.339844 -8.273438 0.96875 -8.386719 C 1.101562 -6.316406 1.101562 -2.140625 0.96875 0 Z M 0.96875 0 "/></g></g></g><g fill="#3a3a3c" fill-opacity="1"><g transform="translate(203.67992, 222.868879)"><g><path d="M 10.300781 -8.386719 C 9.511719 -8.285156 8.601562 -8.273438 8.003906 -8.386719 C 7.058594 -6.980469 6.078125 -5.617188 5.054688 -4.300781 C 4.03125 -5.617188 3.050781 -6.980469 2.09375 -8.386719 C 1.496094 -8.273438 0.527344 -8.285156 -0.269531 -8.386719 C 1.214844 -6.675781 2.644531 -4.917969 4.042969 -3.105469 C 4.132812 -2.070312 4.132812 -1.035156 4.042969 0 L 6 0 C 5.910156 -1.035156 5.910156 -2.070312 6 -3.105469 C 7.382812 -4.917969 8.824219 -6.675781 10.300781 -8.386719 Z M 10.300781 -8.386719 "/></g></g></g><g fill="#3a3a3c" fill-opacity="1"><g transform="translate(213.423213, 222.868879)"><g><path d="M 10.976562 0 C 9.613281 -2.792969 8.328125 -5.59375 7.148438 -8.386719 C 6.335938 -8.238281 4.773438 -8.285156 3.960938 -8.386719 C 2.78125 -5.59375 1.519531 -2.792969 0.15625 0 L 2.363281 0 C 2.589844 -0.539062 2.824219 -1.148438 3.085938 -1.765625 C 4.546875 -1.800781 6.550781 -1.800781 8.003906 -1.757812 C 8.238281 -1.160156 8.453125 -0.5625 8.667969 0 Z M 3.558594 -2.914062 C 4.300781 -4.714844 5.054688 -6.496094 5.515625 -7.351562 C 6.234375 -6.023438 6.921875 -4.46875 7.542969 -2.914062 C 6.335938 -2.882812 4.761719 -2.882812 3.558594 -2.914062 Z M 3.558594 -2.914062 "/></g></g></g><g fill="#3a3a3c" fill-opacity="1"><g transform="translate(224.269121, 222.868879)"><g><path d="M 8.410156 0 L 11.132812 0 C 11.03125 -2.792969 11.019531 -5.59375 11.097656 -8.386719 C 10.46875 -8.273438 9.804688 -8.285156 9.09375 -8.386719 C 9.207031 -6.101562 9.230469 -3.792969 9.195312 -1.496094 C 7.304688 -3.757812 5.492188 -6.054688 3.757812 -8.386719 C 3.015625 -8.273438 1.710938 -8.296875 0.96875 -8.386719 C 1.058594 -5.59375 1.058594 -2.792969 0.96875 0 L 2.996094 0 C 2.894531 -2.261719 2.859375 -4.558594 2.894531 -6.820312 C 4.804688 -4.59375 6.640625 -2.308594 8.410156 0 Z M 8.410156 0 "/></g></g></g><g fill="#3a3a3c" fill-opacity="1"><g transform="translate(236.08263, 222.868879)"><g><path d="M 6.316406 0.191406 C 8.5 0.191406 9.949219 -0.292969 11.222656 -1.214844 C 11.144531 -1.664062 11.03125 -2.296875 11.097656 -2.960938 C 9.691406 -1.632812 8.128906 -1.171875 6.527344 -1.171875 C 3.828125 -1.171875 2.476562 -2.410156 2.476562 -4.234375 C 2.476562 -6.167969 4.074219 -7.261719 6.597656 -7.25 C 7.722656 -7.238281 9.285156 -6.96875 11.097656 -5.875 C 11.019531 -6.527344 11.019531 -7.011719 11.097656 -7.664062 C 9.296875 -8.410156 7.800781 -8.601562 6.496094 -8.601562 C 2.835938 -8.601562 0.519531 -7.082031 0.519531 -4.234375 C 0.519531 -1.507812 2.613281 0.191406 6.316406 0.191406 Z M 6.316406 0.191406 "/></g></g></g><g fill="#3a3a3c" fill-opacity="1"><g transform="translate(247.626115, 222.868879)"><g><path d="M 0.96875 0 L 9.996094 0 C 9.949219 -0.5625 9.949219 -1.160156 9.996094 -1.722656 C 8.429688 -1.429688 5.167969 -1.25 3.027344 -1.273438 C 2.984375 -2.046875 2.984375 -2.835938 2.984375 -3.589844 C 5.078125 -3.636719 7.664062 -3.558594 9.195312 -3.46875 C 9.152344 -3.917969 9.152344 -4.425781 9.195312 -4.886719 C 7.675781 -4.785156 5.078125 -4.695312 2.984375 -4.726562 C 2.972656 -5.527344 2.984375 -6.328125 3.003906 -7.125 C 5.132812 -7.148438 8.421875 -6.96875 9.996094 -6.664062 C 9.949219 -7.226562 9.949219 -7.800781 9.996094 -8.351562 C 7.9375 -8.195312 2.339844 -8.273438 0.96875 -8.386719 C 1.101562 -6.316406 1.101562 -2.140625 0.96875 0 Z M 0.96875 0 "/></g></g></g></svg>